<svg width="424" height="60" viewBox="0 0 424 60" fill="none" xmlns="http://www.w3.org/2000/svg">
<path d="M0.864 47V2.2H8.224V47H0.864ZM5.92 47V40.28H31.008V47H5.92ZM5.92 27.352V20.888H28.832V27.352H5.92ZM5.92 8.92V2.2H30.688V8.92H5.92ZM50.018 47.64C47.2447 47.64 44.7273 46.936 42.466 45.528C40.2473 44.12 38.4767 42.2213 37.154 39.832C35.874 37.4 35.234 34.6907 35.234 31.704C35.234 28.6747 35.874 25.9653 37.154 23.576C38.4767 21.144 40.2473 19.224 42.466 17.816C44.7273 16.3653 47.2447 15.64 50.018 15.64C52.3647 15.64 54.434 16.152 56.226 17.176C58.0607 18.1573 59.5113 19.5227 60.578 21.272C61.6447 23.0213 62.178 25.0053 62.178 27.224V36.056C62.178 38.2747 61.6447 40.2587 60.578 42.008C59.554 43.7573 58.1247 45.144 56.29 46.168C54.4553 47.1493 52.3647 47.64 50.018 47.64ZM51.17 40.984C52.9193 40.984 54.434 40.6 55.714 39.832C57.0367 39.0213 58.0607 37.912 58.786 36.504C59.5113 35.096 59.874 33.4747 59.874 31.64C59.874 29.8053 59.5113 28.184 58.786 26.776C58.0607 25.368 57.0367 24.28 55.714 23.512C54.434 22.7013 52.9193 22.296 51.17 22.296C49.4633 22.296 47.9487 22.7013 46.626 23.512C45.346 24.28 44.322 25.368 43.554 26.776C42.8287 28.184 42.466 29.8053 42.466 31.64C42.466 33.4747 42.8287 35.096 43.554 36.504C44.322 37.912 45.346 39.0213 46.626 39.832C47.9487 40.6 49.4633 40.984 51.17 40.984ZM66.466 47H59.426V38.744L60.642 31.256L59.426 23.832V0.919998H66.466V47ZM234.927 47V2.2H242.287V47H234.927ZM239.983 47V40.28H263.407V47H239.983ZM282.364 47.64C279.292 47.64 276.518 46.9573 274.044 45.592C271.612 44.184 269.67 42.264 268.22 39.832C266.812 37.4 266.108 34.6693 266.108 31.64C266.108 28.6107 266.812 25.9013 268.22 23.512C269.628 21.08 271.526 19.16 273.916 17.752C276.348 16.344 279.036 15.64 281.98 15.64C284.838 15.64 287.356 16.3013 289.532 17.624C291.75 18.9467 293.478 20.76 294.716 23.064C295.996 25.368 296.636 27.992 296.636 30.936C296.636 31.448 296.593 31.9813 296.507 32.536C296.465 33.048 296.38 33.624 296.252 34.264H271.036V28.504H292.604L289.98 30.808C289.894 28.9307 289.532 27.352 288.892 26.072C288.252 24.792 287.334 23.8107 286.14 23.128C284.988 22.4453 283.558 22.104 281.852 22.104C280.06 22.104 278.502 22.488 277.18 23.256C275.857 24.024 274.833 25.112 274.108 26.52C273.382 27.8853 273.02 29.528 273.02 31.448C273.02 33.368 273.404 35.0533 274.172 36.504C274.94 37.9547 276.028 39.0853 277.436 39.896C278.844 40.664 280.465 41.048 282.3 41.048C283.878 41.048 285.329 40.7707 286.652 40.216C288.017 39.6613 289.169 38.8507 290.108 37.784L294.588 42.328C293.094 44.0773 291.281 45.4 289.148 46.296C287.014 47.192 284.753 47.64 282.364 47.64Z" fill="#BA2D2D" style="fill:#BA2D2D;fill:color(display-p3 0.7292 0.1762 0.1762);fill-opacity:1;"/>
<path d="M83.239 47L70.887 16.28H78.183L86.503 38.616L84.327 38.68L92.455 16.28H96.551L104.679 38.68L102.503 38.616L110.823 16.28H118.119L105.767 47H101.671L93.351 25.752H95.655L87.335 47H83.239ZM134.643 47.64C131.87 47.64 129.352 46.936 127.091 45.528C124.872 44.12 123.102 42.2213 121.779 39.832C120.499 37.4 119.859 34.6907 119.859 31.704C119.859 28.6747 120.499 25.9653 121.779 23.576C123.102 21.144 124.872 19.224 127.091 17.816C129.352 16.3653 131.87 15.64 134.643 15.64C136.99 15.64 139.059 16.152 140.851 17.176C142.686 18.1573 144.136 19.5227 145.203 21.272C146.27 23.0213 146.803 25.0053 146.803 27.224V36.056C146.803 38.2747 146.27 40.2587 145.203 42.008C144.179 43.7573 142.75 45.144 140.915 46.168C139.08 47.1493 136.99 47.64 134.643 47.64ZM135.795 40.984C138.398 40.984 140.488 40.1093 142.067 38.36C143.688 36.6107 144.499 34.3707 144.499 31.64C144.499 29.8053 144.136 28.184 143.411 26.776C142.686 25.368 141.662 24.28 140.339 23.512C139.059 22.7013 137.544 22.296 135.795 22.296C134.088 22.296 132.574 22.7013 131.251 23.512C129.971 24.28 128.947 25.368 128.179 26.776C127.454 28.184 127.091 29.8053 127.091 31.64C127.091 33.4747 127.454 35.096 128.179 36.504C128.947 37.912 129.971 39.0213 131.251 39.832C132.574 40.6 134.088 40.984 135.795 40.984ZM144.051 47V38.744L145.267 31.256L144.051 23.832V16.28H151.091V47H144.051ZM158.904 47V16.28H165.944V47H158.904ZM165.944 29.912L163.512 28.696C163.512 24.8133 164.365 21.6773 166.072 19.288C167.821 16.856 170.445 15.64 173.944 15.64C175.48 15.64 176.867 15.9173 178.104 16.472C179.341 17.0267 180.493 17.9227 181.56 19.16L176.952 23.896C176.397 23.2987 175.779 22.872 175.096 22.616C174.413 22.36 173.624 22.232 172.728 22.232C170.765 22.232 169.144 22.8507 167.864 24.088C166.584 25.3253 165.944 27.2667 165.944 29.912ZM196.893 47.64C194.12 47.64 191.602 46.936 189.341 45.528C187.122 44.12 185.352 42.2213 184.029 39.832C182.749 37.4 182.109 34.6907 182.109 31.704C182.109 28.6747 182.749 25.9653 184.029 23.576C185.352 21.144 187.122 19.224 189.341 17.816C191.602 16.3653 194.12 15.64 196.893 15.64C199.24 15.64 201.309 16.152 203.101 17.176C204.936 18.1573 206.386 19.5227 207.453 21.272C208.52 23.0213 209.053 25.0053 209.053 27.224V36.056C209.053 38.2747 208.52 40.2587 207.453 42.008C206.429 43.7573 205 45.144 203.165 46.168C201.33 47.1493 199.24 47.64 196.893 47.64ZM198.045 40.984C199.794 40.984 201.309 40.6 202.589 39.832C203.912 39.0213 204.936 37.912 205.661 36.504C206.386 35.096 206.749 33.4747 206.749 31.64C206.749 29.8053 206.386 28.184 205.661 26.776C204.936 25.368 203.912 24.28 202.589 23.512C201.309 22.7013 199.794 22.296 198.045 22.296C196.338 22.296 194.824 22.7013 193.501 23.512C192.221 24.28 191.197 25.368 190.429 26.776C189.704 28.184 189.341 29.8053 189.341 31.64C189.341 33.4747 189.704 35.096 190.429 36.504C191.197 37.912 192.221 39.0213 193.501 39.832C194.824 40.6 196.338 40.984 198.045 40.984ZM213.341 47H206.301V38.744L207.517 31.256L206.301 23.832V0.919998H213.341V47ZM302.279 47V16.28H309.319V47H302.279ZM322.695 47V28.696C322.695 26.648 322.055 25.0693 320.775 23.96C319.495 22.808 317.916 22.232 316.039 22.232C314.759 22.232 313.607 22.488 312.583 23C311.602 23.512 310.812 24.2587 310.215 25.24C309.618 26.1787 309.319 27.3307 309.319 28.696L306.567 27.16C306.567 24.8133 307.079 22.7867 308.103 21.08C309.127 19.3733 310.514 18.0507 312.263 17.112C314.012 16.1307 315.975 15.64 318.151 15.64C320.327 15.64 322.29 16.1093 324.039 17.048C325.788 17.9867 327.175 19.3093 328.199 21.016C329.223 22.7227 329.735 24.7707 329.735 27.16V47H322.695ZM343.111 47V28.696C343.111 26.648 342.471 25.0693 341.191 23.96C339.911 22.808 338.332 22.232 336.455 22.232C335.218 22.232 334.087 22.488 333.063 23C332.039 23.512 331.228 24.2587 330.631 25.24C330.034 26.1787 329.735 27.3307 329.735 28.696L325.767 27.16C325.98 24.8133 326.663 22.7867 327.815 21.08C328.967 19.3733 330.439 18.0507 332.231 17.112C334.066 16.1307 336.071 15.64 338.247 15.64C340.466 15.64 342.471 16.1093 344.263 17.048C346.055 17.9867 347.484 19.3093 348.551 21.016C349.618 22.7227 350.151 24.7707 350.151 27.16V47H343.111ZM370.268 47.64C367.495 47.64 364.977 46.936 362.716 45.528C360.497 44.12 358.727 42.2213 357.404 39.832C356.124 37.4 355.484 34.6907 355.484 31.704C355.484 28.6747 356.124 25.9653 357.404 23.576C358.727 21.144 360.497 19.224 362.716 17.816C364.977 16.3653 367.495 15.64 370.268 15.64C372.615 15.64 374.684 16.152 376.476 17.176C378.311 18.1573 379.761 19.5227 380.828 21.272C381.895 23.0213 382.428 25.0053 382.428 27.224V36.056C382.428 38.2747 381.895 40.2587 380.828 42.008C379.804 43.7573 378.375 45.144 376.54 46.168C374.705 47.1493 372.615 47.64 370.268 47.64ZM371.42 40.984C374.023 40.984 376.113 40.1093 377.692 38.36C379.313 36.6107 380.124 34.3707 380.124 31.64C380.124 29.8053 379.761 28.184 379.036 26.776C378.311 25.368 377.287 24.28 375.964 23.512C374.684 22.7013 373.169 22.296 371.42 22.296C369.713 22.296 368.199 22.7013 366.876 23.512C365.596 24.28 364.572 25.368 363.804 26.776C363.079 28.184 362.716 29.8053 362.716 31.64C362.716 33.4747 363.079 35.096 363.804 36.504C364.572 37.912 365.596 39.0213 366.876 39.832C368.199 40.6 369.713 40.984 371.42 40.984ZM379.676 47V38.744L380.892 31.256L379.676 23.832V16.28H386.716V47H379.676ZM404.449 47.32L391.329 16.28H399.073L408.033 39.064H405.793L415.265 16.28H423.073L408.801 47.32H404.449ZM395.297 59.8L404.833 40.152L408.801 47.32L403.105 59.8H395.297Z" fill="#828282" style="fill:#828282;fill:color(display-p3 0.5083 0.5083 0.5083);fill-opacity:1;"/>
</svg>
